<svg xmlns="http://www.w3.org/2000/svg" viewBox="0 0 720 370" font-family="Helvetica,Arial,sans-serif" font-size="11">
<rect width="720" height="370" fill="#fff"/>
<text x="480.0" y="22" text-anchor="middle" font-size="13">Cited-paper ranking: LLM reranking vs. embedding retrieval</text>
<line x1="260.0" y1="40" x2="260.0" y2="330" stroke="#ddd"/><text x="260.0" y="346" text-anchor="middle">0.3</text>
<line x1="322.9" y1="40" x2="322.9" y2="330" stroke="#ddd"/><text x="322.9" y="346" text-anchor="middle">0.4</text>
<line x1="385.7" y1="40" x2="385.7" y2="330" stroke="#ddd"/><text x="385.7" y="346" text-anchor="middle">0.5</text>
<line x1="448.6" y1="40" x2="448.6" y2="330" stroke="#ddd"/><text x="448.6" y="346" text-anchor="middle">0.6</text>
<line x1="511.4" y1="40" x2="511.4" y2="330" stroke="#ddd"/><text x="511.4" y="346" text-anchor="middle">0.7</text>
<line x1="574.3" y1="40" x2="574.3" y2="330" stroke="#ddd"/><text x="574.3" y="346" text-anchor="middle">0.8</text>
<line x1="637.1" y1="40" x2="637.1" y2="330" stroke="#ddd"/><text x="637.1" y="346" text-anchor="middle">0.9</text>
<line x1="700.0" y1="40" x2="700.0" y2="330" stroke="#ddd"/><text x="700.0" y="346" text-anchor="middle">1.0</text>
<rect x="260" y="40" width="440" height="290" fill="none" stroke="#000" stroke-width="0.8"/>
<text x="252" y="58.5" text-anchor="end">Llama 3.2 3B reranker (listwise, full pool)</text><line x1="564.2" y1="54.5" x2="633.4" y2="54.5" stroke="#c0392b" stroke-width="1.6"/><line x1="564.2" y1="50.5" x2="564.2" y2="58.5" stroke="#c0392b"/><line x1="633.4" y1="50.5" x2="633.4" y2="58.5" stroke="#c0392b"/><circle cx="600.1" cy="54.5" r="4" fill="#c0392b"/>
<text x="252" y="87.5" text-anchor="end">Two-stage: Qwen3 → Llama 3.2 3B</text><line x1="400.8" y1="83.5" x2="482.5" y2="83.5" stroke="#e67e22" stroke-width="1.6"/><line x1="400.8" y1="79.5" x2="400.8" y2="87.5" stroke="#e67e22"/><line x1="482.5" y1="79.5" x2="482.5" y2="87.5" stroke="#e67e22"/><circle cx="441.7" cy="83.5" r="4" fill="#e67e22"/>
<text x="252" y="116.5" text-anchor="end">TF-IDF</text><line x1="367.5" y1="112.5" x2="449.2" y2="112.5" stroke="#34495e" stroke-width="1.6"/><line x1="367.5" y1="108.5" x2="367.5" y2="116.5" stroke="#34495e"/><line x1="449.2" y1="108.5" x2="449.2" y2="116.5" stroke="#34495e"/><circle cx="408.3" cy="112.5" r="4" fill="#34495e"/>
<text x="252" y="145.5" text-anchor="end">MiniLM (all-MiniLM-L6-v2)</text><line x1="366.9" y1="141.5" x2="451.1" y2="141.5" stroke="#34495e" stroke-width="1.6"/><line x1="366.9" y1="137.5" x2="366.9" y2="145.5" stroke="#34495e"/><line x1="451.1" y1="137.5" x2="451.1" y2="145.5" stroke="#34495e"/><circle cx="408.3" cy="141.5" r="4" fill="#34495e"/>
<text x="252" y="174.5" text-anchor="end">Qwen3 + MiniLM (fusion)</text><line x1="361.8" y1="170.5" x2="443.5" y2="170.5" stroke="#34495e" stroke-width="1.6"/><line x1="361.8" y1="166.5" x2="361.8" y2="174.5" stroke="#34495e"/><line x1="443.5" y1="166.5" x2="443.5" y2="174.5" stroke="#34495e"/><circle cx="402.1" cy="170.5" r="4" fill="#34495e"/>
<text x="252" y="203.5" text-anchor="end">Llama + MiniLM (fusion)</text><line x1="358.1" y1="199.5" x2="442.3" y2="199.5" stroke="#34495e" stroke-width="1.6"/><line x1="358.1" y1="195.5" x2="358.1" y2="203.5" stroke="#34495e"/><line x1="442.3" y1="195.5" x2="442.3" y2="203.5" stroke="#34495e"/><circle cx="399.5" cy="199.5" r="4" fill="#34495e"/>
<text x="252" y="232.5" text-anchor="end">Qwen3 embedding</text><line x1="357.4" y1="228.5" x2="431.6" y2="228.5" stroke="#34495e" stroke-width="1.6"/><line x1="357.4" y1="224.5" x2="357.4" y2="232.5" stroke="#34495e"/><line x1="431.6" y1="224.5" x2="431.6" y2="232.5" stroke="#34495e"/><circle cx="393.9" cy="228.5" r="4" fill="#34495e"/>
<text x="252" y="261.5" text-anchor="end">EmbeddingGemma</text><line x1="327.9" y1="257.5" x2="409.0" y2="257.5" stroke="#34495e" stroke-width="1.6"/><line x1="327.9" y1="253.5" x2="327.9" y2="261.5" stroke="#34495e"/><line x1="409.0" y1="253.5" x2="409.0" y2="261.5" stroke="#34495e"/><circle cx="367.5" cy="257.5" r="4" fill="#34495e"/>
<text x="252" y="290.5" text-anchor="end">SPECTER2</text><line x1="325.4" y1="286.5" x2="403.9" y2="286.5" stroke="#34495e" stroke-width="1.6"/><line x1="325.4" y1="282.5" x2="325.4" y2="290.5" stroke="#34495e"/><line x1="403.9" y1="282.5" x2="403.9" y2="290.5" stroke="#34495e"/><circle cx="363.7" cy="286.5" r="4" fill="#34495e"/>
<text x="252" y="319.5" text-anchor="end">BM25</text><line x1="292.7" y1="315.5" x2="367.5" y2="315.5" stroke="#34495e" stroke-width="1.6"/><line x1="292.7" y1="311.5" x2="292.7" y2="319.5" stroke="#34495e"/><line x1="367.5" y1="311.5" x2="367.5" y2="319.5" stroke="#34495e"/><circle cx="329.1" cy="315.5" r="4" fill="#34495e"/>
<text x="480.0" y="364" text-anchor="middle">MRR (mean over 100 queries, 95% bootstrap CI)</text></svg>
